<svg width="22" height="22" viewBox="0 0 22 22" fill="none" xmlns="http://www.w3.org/2000/svg">
<g id="Frame 427324677">
<path id="Vector" d="M12.9342 8.96638L10.8992 9.98388M10.8992 9.98388L8.86417 8.96638M10.8992 9.98388V12.5322M19.0483 5.90472L17.0133 6.92222M19.0483 5.90472L17.0133 4.88722M19.0483 5.90472V8.45305M12.9342 2.85222L10.8992 1.83472L8.86417 2.85222M2.75 5.90472L4.785 4.88722M2.75 5.90472L4.785 6.92222M2.75 5.90472V8.45305M10.8992 20.168L8.86417 19.1505M10.8992 20.168L12.9342 19.1505M10.8992 20.168V17.6197M4.785 17.1155L2.75 16.098V13.5497M17.0133 17.1155L19.0483 16.098V13.5497" stroke="black" stroke-width="1.14286" stroke-linecap="round" stroke-linejoin="round"/>
</g>
</svg>
