<svg width="40" height="41" viewBox="0 0 40 41" fill="none" xmlns="http://www.w3.org/2000/svg">
<rect y="0.00332642" width="40" height="40" rx="20" fill="black" fill-opacity="0.1"/>
<path d="M24.34 17.3274C24.8665 17.3274 25.3812 17.1713 25.8189 16.8788C26.2567 16.5863 26.5979 16.1705 26.7994 15.6841C27.0009 15.1977 27.0536 14.6624 26.9509 14.146C26.8481 13.6296 26.5946 13.1553 26.2223 12.783C25.85 12.4107 25.3757 12.1572 24.8593 12.0545C24.3429 11.9518 23.8077 12.0045 23.3212 12.206C22.8348 12.4074 22.4191 12.7486 22.1266 13.1864C21.834 13.6242 21.6779 14.1389 21.6779 14.6654C21.6731 14.7566 21.6731 14.848 21.6779 14.9392L16.6809 17.4415C16.1826 16.9996 15.566 16.7131 14.9069 16.6172C14.2479 16.5212 13.5752 16.6201 12.9716 16.9016C12.368 17.1831 11.8599 17.6349 11.5098 18.2015C11.1598 18.7681 10.983 19.4246 11.0013 20.0904C11.0196 20.7561 11.2321 21.402 11.6128 21.9485C11.9935 22.495 12.5256 22.9182 13.1437 23.1662C13.7619 23.4141 14.439 23.4759 15.0918 23.3439C15.7446 23.2119 16.3445 22.8919 16.8178 22.4233L20.9173 25.3288C20.9162 25.9669 21.1436 26.5844 21.5585 27.0692C21.9733 27.5541 22.5482 27.8744 23.1788 27.9719C23.8094 28.0695 24.4542 27.9379 24.9962 27.6011C25.5382 27.2643 25.9416 26.7444 26.1333 26.1358C26.325 25.5271 26.2924 24.8699 26.0413 24.2832C25.7902 23.6966 25.3373 23.2192 24.7646 22.9378C24.1919 22.6563 23.5373 22.5893 22.9194 22.7488C22.3015 22.9084 21.7613 23.284 21.3965 23.8076L17.662 21.1303C17.9615 20.3383 17.9451 19.4616 17.6164 18.6813L22.294 16.3387C22.5402 16.645 22.8516 16.8927 23.2055 17.0638C23.5594 17.2348 23.9469 17.3249 24.34 17.3274ZM24.34 13.5245C24.5656 13.5245 24.7862 13.5914 24.9738 13.7168C25.1614 13.8421 25.3076 14.0203 25.394 14.2288C25.4804 14.4372 25.5029 14.6666 25.4589 14.888C25.4149 15.1093 25.3062 15.3125 25.1467 15.4721C24.9871 15.6317 24.7838 15.7403 24.5625 15.7843C24.3412 15.8284 24.1118 15.8058 23.9034 15.7194C23.6949 15.6331 23.5167 15.4868 23.3914 15.2992C23.266 15.1116 23.1991 14.891 23.1991 14.6654C23.1991 14.3628 23.3193 14.0726 23.5332 13.8587C23.7472 13.6447 24.0374 13.5245 24.34 13.5245ZM14.4524 21.8909C14.1282 21.8909 13.8095 21.8081 13.5264 21.6503C13.2433 21.4924 13.0053 21.2648 12.8349 20.9891C12.6645 20.7134 12.5674 20.3987 12.5528 20.0749C12.5382 19.7511 12.6067 19.429 12.7516 19.1391C12.8966 18.8492 13.1132 18.6012 13.381 18.4186C13.6488 18.2359 13.9588 18.1248 14.2816 18.0957C14.6044 18.0666 14.9293 18.1205 15.2254 18.2522C15.5215 18.384 15.7791 18.5893 15.9735 18.8486C16.1884 19.1303 16.3199 19.4667 16.3532 19.8194C16.3864 20.1722 16.3201 20.5272 16.1616 20.8441C16.0032 21.161 15.759 21.4271 15.4568 21.6122C15.1547 21.7972 14.8067 21.8938 14.4524 21.8909ZM23.5794 24.1727C23.805 24.1727 24.0256 24.2396 24.2132 24.365C24.4008 24.4903 24.5471 24.6685 24.6334 24.877C24.7198 25.0854 24.7424 25.3148 24.6983 25.5361C24.6543 25.7575 24.5457 25.9607 24.3861 26.1203C24.2265 26.2798 24.0233 26.3885 23.802 26.4325C23.5806 26.4765 23.3513 26.454 23.1428 26.3676C22.9343 26.2812 22.7561 26.135 22.6308 25.9474C22.5054 25.7598 22.4385 25.5392 22.4385 25.3136C22.4385 25.011 22.5587 24.7208 22.7727 24.5068C22.9866 24.2929 23.2768 24.1727 23.5794 24.1727Z" fill="black"/>
</svg>
