<svg xmlns="http://www.w3.org/2000/svg" width="22.768" height="22.769" viewBox="0 0 22.768 22.769">
  <g id="Group_25848" data-name="Group 25848" transform="translate(-987.541 -1099.5)">
    <g id="Group_25849" data-name="Group 25849" transform="translate(-64 20)">
      <g id="Group_6712" data-name="Group 6712" transform="translate(1052.041 1080)">
        <path id="Path_21371" data-name="Path 21371" d="M941.775,586.544l-1.905-.714-1.608.837-1.61-.837-1.609.837-1.609-.837-1.609.837-1.607-.837-1.609.837L927,585.83l-1.611.837-1.611-.837-1.614.837-1.318-.715-.714-1.313.837-1.608-.837-1.61.837-1.609-.837-1.61.837-1.609-.837-1.607.837-1.609-.837-1.611.837-1.611-.837-1.611.837-1.614-.715-1.91,1.905.714,1.608-.837,1.61.837,1.609-.837,1.609.837,1.609-.837,1.607.837,1.609-.837,1.611.837,1.611-.837,1.611.837,1.614-.837,1.318.715.714,1.313-.837,1.608.837,1.61-.837,1.609.837,1.609-.837,1.609.837,1.607-.837,1.609.837,1.611-.837,1.611.837,1.611-.836,1.649Z" transform="translate(-920.129 -564.899)" fill="#ff9d00" stroke="#ff9d00" stroke-linecap="round" stroke-linejoin="round" stroke-width="1"/>
      </g>
      <g id="_2089713" data-name="2089713" transform="translate(1058.045 1022.063)" fill="#fff">
        <path d="M 3.755737543106079 73.0228271484375 L 3.579057455062866 72.84580993652344 L -0.1769425123929977 69.08264923095703 L -0.3527625203132629 68.90648651123047 L -0.1774025112390518 68.72988891601563 L 0.8436974883079529 67.70156860351563 L 1.020477533340454 67.52353668212891 L 1.197877526283264 67.70093536376953 L 3.756105184555054 70.25916290283203 L 9.756117820739746 64.26612091064453 L 9.931667327880859 64.09076690673828 L 10.10832786560059 64.26499938964844 L 11.14375782012939 65.28610992431641 L 11.32309722900391 65.46295928955078 L 11.14490795135498 65.64096832275391 L 3.932687520980835 72.84606170654297 L 3.755737543106079 73.0228271484375 Z" stroke="none"/>
        <path d="M 3.7559974193573 72.66919708251953 L 10.96821784973145 65.464111328125 L 9.932787895202637 64.44300079345703 L 3.7559974193573 70.61261749267578 L 1.021097540855408 67.87771606445313 L -2.505645852579619e-06 68.90603637695313 L 3.7559974193573 72.66919708251953 M 3.755487442016602 73.37647247314453 L 3.40210747718811 73.02241516113281 L -0.3538925051689148 69.25926208496094 L -0.7055324912071228 68.90695190429688 L -0.3548025190830231 68.55372619628906 L 0.6662974953651428 67.52540588378906 L 1.019847512245178 67.16937255859375 L 1.374647498130798 67.524169921875 L 3.756197690963745 69.90571594238281 L 9.579437255859375 64.08924102783203 L 9.930537223815918 63.73854827880859 L 10.28386783599854 64.08699035644531 L 11.31929779052734 65.10810089111328 L 11.6779670715332 65.46180725097656 L 11.3215970993042 65.81784057617188 L 4.109377384185791 73.02292633056641 L 3.755487442016602 73.37647247314453 Z" stroke="none" fill="#fff"/>
      </g>
    </g>
  </g>
</svg>
