<?xml version="1.0" encoding="utf-8"?>
<!-- Generator: Adobe Illustrator 26.0.1, SVG Export Plug-In . SVG Version: 6.00 Build 0)  -->
<svg version="1.1" id="Group_24564" xmlns="http://www.w3.org/2000/svg" xmlns:xlink="http://www.w3.org/1999/xlink" x="0px"
	 y="0px" viewBox="-20 0 65 21" xml:space="preserve" style="width: 90px;">
<path d="M7.1,10C5,10,3.4,8.8,3.4,7.2S5,4.5,7.1,4.5s3.7,1.2,3.7,2.8S9.2,10,7.1,10z M7.1,5.6c-1.4,0-2.7,0.7-2.7,1.6
	c0,0.8,1.1,1.7,2.7,1.7c1.5,0,2.6-0.7,2.6-1.7C9.7,6.3,8.5,5.6,7.1,5.6z"/>
<path d="M7.2,19.3C3.1,19.3,0,16.6,0,13V6.9l0,0c0.3-2.6,3.3-4.6,7.1-4.6c3.9,0,7.1,2.3,7.1,5.1c0,0.2,0,0.4-0.1,0.7v3.2h7v8H7.2z
	 M7.2,18.1H20v-5.7H7.1c-2.5,0-4.8-0.9-6-2.4v3C1.1,14.1,2.4,18.1,7.2,18.1z M13.1,11.2V10c-0.4,0.5-0.9,0.9-1.5,1.2H13.1z M7.1,3.2
	c-3.3,0-6,1.8-6,4c0,0.6,0.2,1.2,0.6,1.7C1.8,9,2,9.2,2,9.2c1.2,1.3,3.3,1.9,4.7,2c0.2,0,0.3,0,0.5,0c3.3,0,6-1.8,6-4
	C13.1,5,10.3,3.2,7.1,3.2z"/>
<polygon points="6.2,17.2 6.9,17.2 6.9,15.8 8.6,15.8 8.6,15.2 6.9,15.2 6.9,14.2 8.8,14.2 8.8,13.6 6.2,13.6 "/>
<path d="M10.1,16.1h0.8H11l0.8,1.1h0.7L11.7,16l0,0c0.2-0.1,0.4-0.2,0.5-0.4s0.2-0.4,0.2-0.7s-0.1-0.5-0.2-0.7
	c-0.1-0.2-0.3-0.3-0.5-0.4c-0.2-0.1-0.5-0.2-0.8-0.2H9.4v3.5h0.7C10.1,17.1,10.1,16.1,10.1,16.1z M11.6,14.4
	c0.1,0.1,0.2,0.3,0.2,0.5s-0.1,0.4-0.2,0.5c-0.2,0.1-0.4,0.2-0.7,0.2h-0.8v-1.4h0.8C11.2,14.2,11.5,14.3,11.6,14.4z"/>
<path d="M15.8,16.6h-2c0,0,0-0.5,0-1h1.8v-0.5h-1.8c0-0.4,0-0.9,0-0.9h1.9v-0.6h-2.6v3.6h2.7V16.6z"/>
<polygon points="19.2,16.6 17.2,16.6 17.2,15.6 19,15.6 19,15.1 17.2,15.1 17.2,14.2 19.1,14.2 19.1,13.6 16.5,13.6 16.5,17.2 
	19.2,17.2 "/>
<rect x="3.8" y="15.9" width="1.2" height="2.2"/>
<rect x="1.8" y="13.6" width="1.2" height="3.1"/>
</svg>
