<svg xmlns="http://www.w3.org/2000/svg" width="21.493" height="22.43" viewBox="0 0 21.493 22.43">
  <g id="home_2_" data-name="home (2)" transform="translate(-10.006 0.305)">
    <g id="Group_25920" data-name="Group 25920" transform="translate(10.256 0.001)">
      <path id="Path_40883" data-name="Path 40883" d="M30.966,9.605,21.233.208a.73.73,0,0,0-1.019,0l-9.733,9.4a.734.734,0,0,0,.51,1.262h1.293V21.141a.734.734,0,0,0,.734.734h5.137a.734.734,0,0,0,.734-.734V15.27h3.669v5.871a.734.734,0,0,0,.734.734h5.137a.734.734,0,0,0,.734-.734V10.867h1.293a.734.734,0,0,0,.51-1.262Zm-1.8.528a.734.734,0,0,0-.734.734V21.141H23.291V15.27a.734.734,0,0,0-.734-.734H18.888a.734.734,0,0,0-.734.734v5.871H13.017V10.867a.734.734,0,0,0-.734-.734H10.99l9.733-9.4,9.737,9.4h-1.3Z" transform="translate(-10.256 -0.001)" stroke="#000" stroke-width="0.5"/>
    </g>
  </g>
</svg>
